<?xml version="1.0" encoding="utf-8"?>
<!-- Generator: Adobe Illustrator 21.1.0, SVG Export Plug-In . SVG Version: 6.00 Build 0)  -->
<svg version="1.1" id="Layer_1" xmlns="http://www.w3.org/2000/svg" xmlns:xlink="http://www.w3.org/1999/xlink" x="0px" y="0px"
	 viewBox="0 0 612 792" style="enable-background:new 0 0 612 792;" xml:space="preserve">
<style type="text/css">
	.st0{fill:#FDFDFD;}
	.st1{fill:#010101;}
	.st2{fill:#030303;}
	.st3{fill:#FE0000;}
	.st4{fill:#020202;}
	.st5{fill:#646464;}
	.st6{fill:#808080;}
	.st7{fill:#E2E2E2;}
	.st8{fill:#DCDCDC;}
	.st9{fill:#E9E9E9;}
	.st10{fill:#CCCCCC;}
	.st11{fill:#C8C8C8;}
	.st12{fill:#D1D1D1;}
	.st13{fill:#B7B7B7;}
	.st14{fill:#929292;}
	.st15{fill:#6F6F6F;}
	.st16{fill:#202020;}
	.st17{fill:#C3C3C3;}
	.st18{fill:#B3B3B3;}
	.st19{fill:#494949;}
	.st20{fill:#BEBEBE;}
	.st21{fill:#6D6D6D;}
	.st22{fill:#DEDEDE;}
	.st23{fill:#A1A1A1;}
	.st24{fill:#E0E0E0;}
	.st25{fill:#D8D8D8;}
	.st26{fill:#555555;}
	.st27{fill:#BABABA;}
	.st28{fill:#C5C5C5;}
	.st29{fill:#404040;}
	.st30{fill:#CBCBCB;}
	.st31{fill:#828282;}
	.st32{fill:#BCBCBC;}
	.st33{fill:#A2A2A2;}
	.st34{fill:#9A9A9A;}
	.st35{fill:#7B7B7B;}
	.st36{fill:#3C3C3C;}
	.st37{fill:#ECECEC;}
	.st38{fill:#4A4A4A;}
	.st39{fill:#8C8C8C;}
	.st40{fill:#292929;}
	.st41{fill:#373737;}
	.st42{fill:#4F4F4F;}
	.st43{fill:#424242;}
	.st44{fill:#919191;}
	.st45{fill:#A9A9A9;}
	.st46{fill:#5C5C5C;}
	.st47{fill:#393939;}
	.st48{fill:#0B0B0B;}
	.st49{fill:#BBBBBB;}
	.st50{fill:#2F2F2F;}
	.st51{fill:#B4B4B4;}
	.st52{fill:#A5A5A5;}
	.st53{fill:#D9D9D9;}
	.st54{fill:#D0D0D0;}
	.st55{fill:#282828;}
	.st56{fill:#999999;}
	.st57{fill:#AEAEAE;}
	.st58{fill:#727272;}
	.st59{fill:#414141;}
	.st60{fill:#9E9E9E;}
	.st61{fill:#B8B8B8;}
	.st62{fill:#8D8D8D;}
	.st63{fill:#B9B9B9;}
	.st64{fill:#797979;}
	.st65{fill:#545454;}
	.st66{fill:#606060;}
	.st67{fill:#5F5F5F;}
	.st68{fill:#B0B0B0;}
	.st69{fill:#878787;}
	.st70{fill:#E4E4E4;}
	.st71{fill:#676767;}
	.st72{fill:#313131;}
	.st73{fill:#DBDBDB;}
	.st74{fill:#F2F2F2;}
	.st75{fill:#F0F0F0;}
	.st76{fill:#EBEBEB;}
	.st77{fill:#D3D3D3;}
	.st78{fill:#252525;}
	.st79{fill:#787878;}
	.st80{fill:#E3E3E3;}
	.st81{fill:#5D5D5D;}
	.st82{fill:#B2B2B2;}
	.st83{fill:#181818;}
	.st84{fill:#7C7C7C;}
	.st85{fill:#343434;}
	.st86{fill:#484848;}
	.st87{fill:#6E6E6E;}
	.st88{fill:#FEFEFE;}
	.st89{fill:#DADADA;}
	.st90{fill:#DDDDDD;}
	.st91{fill:#1A1A1A;}
	.st92{fill:#C9C9C9;}
	.st93{fill:#575757;}
	.st94{fill:#696969;}
	.st95{fill:#9F9F9F;}
	.st96{fill:#F8F8F8;}
	.st97{fill:#E5E5E5;}
	.st98{fill:#E1E1E1;}
	.st99{fill:#CFCFCF;}
	.st100{fill:#565656;}
</style>
<g>
	<path class="st0" d="M-434.8,571.7c-146.5,0-293,0-439.5,0c-1.9,0-2.3-0.4-2.3-2.3c0.1-130.7,0.1-261.3,0-392
		c0-1.9,0.4-2.3,2.3-2.3c293,0,586,0,879,0c1.9,0,2.3,0.4,2.3,2.3c-0.1,130.7-0.1,261.3,0,392c0,1.9-0.4,2.3-2.3,2.3
		C-141.8,571.7-288.3,571.7-434.8,571.7z"/>
	<path d="M-479.9,374.8c-0.1,2.6-0.3,5.1-1.6,7.4c-0.5,0.4-0.5,1.1-1,1.5l0,0c-0.9,0.8-0.1,2.2-0.9,3.1c0.3,1.4,0.8,2.5,1.9,3.5
		c0.6,0.4,0.6,1.1,1,1.6c0.2,2.4,0.4,4.9,0.6,7.3c0.9,1.4,0.1,3.3,1.3,4.6c0.3,0.8,0.4,1.6,0.4,2.5c0,1.1,0,2.2,0,3.4
		c0,0.7,0,1.4,0,2.1c0,0.7-0.2,1.4-0.7,2c-1.3,2.5-1.1,5.3-1.5,8c-0.4,0.5-0.5,1.1-0.8,1.7c0.2,1.2-0.7,1.9-1.1,2.9
		c-0.6,0.4-0.5,1.1-1,1.5c0.3,1-1.1,1.1-1,2c-0.7,0.6-0.8,1.4-1.4,2.1c-1.2,1-2.3,2-3,3.3c-0.6,1-1.3,1.6-2.4,1.7
		c-0.5,0.5-1.4,0.6-1.7,1.4c-0.3,0.8-0.2,1.8-0.8,2.6c-1.5,0-2.4,1.7-4,1.6c-0.5,0.3-1.2,0.4-1.7,0.8c-0.9-0.1-1.2,0.9-2,1.1
		c-0.4,0.5-1.1,0.5-1.6,0.9c-1.5,0.2-3,0-4.4,0.6c-0.3,0.3-0.6,0.4-1,0.5c-0.4,0.1-0.8,0.1-1.1,0.1c-0.4,0-0.8,0-1.2,0
		c-0.5,0-1.1,0-1.6,0c-1.9,0-3.9,0.1-5.8,0c-0.6,0-1.3,0-1.9,0c-0.5,0-0.9,0-1.4,0c-0.7,0-0.9,0.5-1.1,1.1c-0.1,0.2-0.2,0.4-0.3,0.6
		c-0.5,0.5-0.6,1.3-1,1.8c-0.5,0.5-1,1-1.5,1.4c-0.5,0.4-1.2,0.6-1.5,1.2c-0.2,0.3-0.4,0.5-0.6,0.7c-0.8,0.8-2.3,1-2.5,2.5
		c-0.2,0.3-0.4,0.5-0.7,0.7c-0.6,0.3-0.8,1-1.2,1.5c0.3,1-0.8,0.8-1.1,1.3c-0.2,0.5-0.6,0.6-1.1,0.8c-0.7,0.2-0.9,1-1.4,1.4
		c-1.2,0.7-2,2.2-3.4,2.6c-0.6,0.6-1.5,0.3-2.1,0.9l0,0c-0.2,0.2-0.5,0.4-0.8,0.6c-0.6,0.3-0.8,1-1.2,1.4c-0.3,1.4-1.6,1.1-2.5,1.5
		c-0.6,0.6-1.6,0.5-2.2,1.2c-0.4,0.3-1,0.5-1.4,0.8c-0.9,0.1-1.8,0.1-2.7,0.2c-0.5,0.3-1.2,0.4-1.7,0.8c-2.5,0.6-4.5-0.6-6.5-1.9
		c-0.4-0.5-1.2-0.4-1.4-1.1c0-0.1,0-0.3-0.1-0.4c-1-1.4-0.1-3.3-1.4-4.6c-0.2-1.3-0.2-2.5,0-3.8c1.1-1.6,0.4-3.5,0.8-5.2
		c0.1-1-0.2-2,0.5-2.9l0.1,0.1c0.6-0.5,0.9-1.1,0.8-1.9c0-0.6,0-1.2,0-1.8c0-0.7,0.2-1.3,0.6-1.8c0.9-2.6,2.4-5,2.2-7.9
		c0.4-0.5,0.4-1.2,0.9-1.6c0.2-1.3,0.4-2.5,0.6-3.8c0.1-0.5,0.5-0.8,0.9-1c1.2-0.3,1.5-1.2,1.6-2.2c0.1-0.2,0.1-0.4,0.3-0.6
		c0.5-0.4,0.8-0.9,1.1-1.4c0.2-1,0.4-2,0.5-3c0.4-0.3,0.5-0.8,0.9-1.2c0.4-0.5,0.6-1,0.6-1.6c0-0.5,0-1.1,0.2-1.6
		c0.6-0.7,0.9-1.6,0.8-2.5c0-0.9,0.6-1.5,1.1-2c0.5-0.4,1.1-0.6,1.4-1.3c0.1-0.2,0.2-0.4,0.3-0.5c0.7-0.8,0.4-1.8,0.6-2.7
		c0-0.3,0.1-0.6,0.3-0.9c0.6-0.8,1-1.7,1.4-2.6c0.4-0.7,0.7-1.4,1.1-2c0.5-0.5,0.7-1,0.8-1.7c0.2-0.8,0.7-1.3,1.3-1.8
		c0.6-0.4,1.4-0.5,1.7-1.3c0.4-0.9,1.1-1.6,1.7-2.4c0.6-0.6,0.6-1.4,0.6-2.1c0-1-0.1-1.9,0.3-2.9c0.5-0.9,1.2-1.4,2-1.9
		c0.5-0.3,1.2-0.4,1.3-1.1c0.1-0.3,0.2-0.6,0.4-0.9c0.6-0.9,0.8-2.1,1.8-2.6c0.7-0.5,0.7-1.3,1-2c0.3-1.4,0.9-2.5,2.4-2.7
		c0.6-0.2,1.5,0.1,1.7-0.9c0.1-0.3,0.1-0.6,0.2-1c0.2-1,0.6-1.7,1.6-2.2c1.3-0.5,0.7-1.6,0.7-2.5c0.1-1,0.8-1.6,1.5-2.2
		c0.5-0.4,1-0.9,1.6-1.1c0.5-0.2,1.2-0.2,1.5-0.9c0.2-0.3,0.4-0.5,0.6-0.7c0.6-0.1,0.9-0.5,1-1c0.8-0.6,0.2-1.9,1-2.5
		c0.5-1.2,1-2.4,2.5-2.5c0.4-0.5,1.2-0.6,1.5-1.2c0.2-0.3,0.4-0.5,0.7-0.7c0.1-0.9,1.4-1,1.5-2c0.2-0.3,0.4-0.5,0.7-0.6
		c0.5-0.2,0.9-0.5,1.2-1c0-1,1.1-1.3,1.4-2c0.6-0.4,1.4-0.7,1.6-1.6c0.1-0.3,0.3-0.6,0.6-0.8c1-0.3,1.7-0.9,1.9-2
		c0.3-0.5,0.9-0.8,1.3-1.3c0.4-0.4,0.8-0.9,1.2-1.3c0.3,0,0.5-0.1,0.8-0.1c0.6-0.2,0.9-0.6,1.1-1.2c0.2-0.3,0.4-0.5,0.7-0.7
		c1.3-1.1,3.3-1.1,4.4-2.6c0.6-0.6,1.5-0.3,2.1-0.9c1,0.1,1.5-1,2.4-1.1c0.3-0.2,0.5-0.4,0.8-0.5c0.8-0.4,0.6-1.4,1.3-1.9l0,0
		c0.7-0.8,1.9-0.2,2.6-0.9l-0.1-0.1c1.7-0.9,3.4-0.3,5.1-0.4c0.9,0.3,1.7,0.9,2.5,1.3l-0.1,0c0.8,0.7,0,2,1.1,2.5
		c0.5,0.7,0.9,1.4,1.4,2.1c1,1,0,2.5,0.9,3.6c0,1.4,0,2.9,0,4.3c-0.8,1.2-0.1,2.6-0.7,3.8c-1.1,1.6-0.2,3.7-1.2,5.4
		c-0.2,1.5-0.4,2.9-0.6,4.4c-0.7,0.8-0.2,1.9-0.8,2.7c-0.1,0.6-0.1,1.2-0.2,1.8c-0.4,0.5-1.1,0.6-1.3,1.3c-0.1,0.3-0.4,0.5-0.5,0.8
		l-0.1,0C-479.6,373.6-479.6,374.3-479.9,374.8z"/>
	<path d="M-353,423.3c0,0.6-0.1,1.3-0.1,1.9c-0.8,0.7-0.2,1.9-0.9,2.6c-0.3,3.6-2.2,6.4-4,9.3c-1.5,2.5-3.2,4.7-5.3,6.7
		c-2.8,2.6-5.8,5.2-9.5,6.2c-2,0.5-3.9,1.8-6.1,1.3c-1.1,0.8-2.6,0-3.7,0.8c-1.8,0-3.6,0-5.4,0c-0.7-0.7-1.9-0.2-2.6-0.9
		c-3.4-1.2-7-1.8-9.3-5.1c-0.7-1-2.2-1.4-3-2.7c-0.3-0.5-1.4-0.8-1.4,0.5c0,0.5,0,1,0,1.5c0,4.6,0,4.6-4.8,4.6c-1.8,0-3.7-0.1-5.5,0
		c-1.6,0.1-1.9-0.5-1.9-2c0-32.9,0-65.8,0-98.7c0-1.8,0.5-2.3,2.3-2.2c2.7,0.1,5.5,0.1,8.2,0c1.8-0.1,2.2,0.6,2.2,2.3
		c-0.1,10.2,0,20.5,0,30.7c0,1,0.1,2,0.2,3.7c4.4-5,9.4-8.2,15.5-9.5c1.4-1,3.2,0.1,4.6-0.9c6.6,0.8,13,2.1,18.4,6.4
		c5.7,4.6,9.6,10.3,11.1,17.6c0.6,2.8,1.8,5.5,2,8.4c0.9,3.2,0.2,6.5,0.4,9.8c0,0.8,0.1,1.6-0.4,2.3c-0.1,0.5-0.1,1-0.2,1.5
		c-0.6,0.7-0.4,1.5-0.4,2.3C-352.6,422.4-352.7,422.9-353,423.3z"/>
	<path d="M-265.6,447.8c0,0.8,0,1.7,0.1,2.5c0.3,1.7-0.4,2.2-1.9,2c-0.8,0.7-1.9,0.2-2.6,0.9c-3.1,0-6.2,0.2-9.2,0
		c-5.4-0.4-12.7-4.9-12.3-11.9c-1-1.6,0.2-3.5-0.9-5.1c0-15.7-0.1-31.3,0-47c0-1.8-0.6-2-2.1-2c-2.3,0-5.4,1-6.7-0.4
		c-1.1-1.3-0.2-4.3-0.4-6.5c-0.2-2,0.4-2.6,2.4-2.5c2.1,0.2,5,0.7,6.2-0.3c1.4-1.1,0.4-4.1,0.4-6.2c0.1-3.2,0.1-6.5,0-9.7
		c-0.1-1.8,0.8-2.8,2.1-3.7c2.8-1.9,6.2-2.8,8.6-5.3c0.3-0.3,1-0.4,1.4-0.3c0.8,0.2,0.5,1,0.5,1.5c0,7.3,0.1,14.7,0,22
		c0,1.7,0.4,2.3,2.2,2.2c2.9-0.2,5.8,0,8.7-0.1c1.3,0,1.8,0.3,1.7,1.7c-0.1,2.5,0.8,5.6-0.4,7.3c-1.2,1.6-4.5,0.4-6.9,0.5
		c-5.3,0.1-5.3,0-5.3,5.3c0,13.1,0,26.2,0,39.2c0.7,1.1,0.3,2.4,0.4,3.5c0.1,0.9-0.2,1.8,0.5,2.5c0.7,2.5,2.4,3.6,4.9,3.5
		c1.2,0,2.3,0.1,3.5,0c4.1-0.3,4,0.3,4.2,4C-265.8,445.9-266.3,447.1-265.6,447.8z"/>
	<path class="st1" d="M-436.5,373.8c3.7,0.9,7.7,1.1,10.8,3.8c0.3,0.3,1,0.2,1.4,0.2c0.6,0.4,0.5,0.9,0.2,1.4
		c-1.3,3.6-2.6,7.2-4,10.9c-3.6-2.1-7.3-3.6-11.6-2.8c-0.5,0.4-1.1,0.5-1.6,0.8c-3.3,1.1-6.1,3.1-7.2,6.3c-1.3,3.8-2.6,7.7-2.7,11.8
		c-0.7,1.2-0.3,2.5-0.4,3.7c0,12.4,0,24.7,0,37.1c0,1,0.3,2.2-0.5,3.1c-3.3,0-6.7,0-10,0.1c-1.8,0.1-2.3-0.5-2.3-2.3
		c0.1-8.6,0-17.1,0-25.7c0-14.3,0-28.6,0-42.9c0-2.5,0.3-3.9,3.5-3.6c1.7,0.2,3.5,0.2,5.2,0c2.4-0.3,2.7,0.8,2.7,2.8
		c-0.1,2.7,0,5.4,0,8.6c2-2.9,3.5-5.3,5.4-7.5c2-2.4,4.5-4.2,7.6-5C-439,373.8-437.5,374.6-436.5,373.8z"/>
	<path d="M-320.5,367.2c0.1,0.3,0,0.9,0.2,0.9c2.8,1,3,4.9,6.3,5.4c1.2,0.2,0.8,1.6,1,2.2c0.4,2,3.3,2.5,2.7,5
		c-0.2,0.9-0.2,1.4-1.4,1.5c-4,0.4-7.7-0.1-11.4-1.9c-0.6-0.3-1.6-0.4-2.2,0c-3.1,1.9-6.6,1.3-9.5,0.6c-2-0.5-4.8-1.9-5.8-4.8
		c-0.9-2.6-1.7-5.1-1.9-8c-0.1-1.6-2.6-3.2-4.1-4.7c-1.5-1.6-2.9-3.4-3-5.7c-0.1-2.7,2.2-4.5,4.6-3.3c2.7,1.4,5.9,1.5,8.4,3.3
		c1.2,0.9,2.2,1,3.5,1c1.9,1,4.3,1.1,5.7,3c0.3,0.6,0.8,1,1.3,1.3c0.4,0.3,0.8,0.7,1.3,0.9C-323.1,364.8-321.5,365.6-320.5,367.2z"
		/>
	<path d="M-539,378.2c0.1,0,0.2-0.1,0.4-0.1c1-0.5,0.3-1.8,1.1-2.4c1.7-2,4.4-2.2,6.5-3.5c0.4-0.5,1.1-0.5,1.6-1
		c0.3,0,0.6-0.1,0.9-0.1c0.9-0.8,2.2-0.1,3.1-0.9c0.4-0.1,0.9-0.1,1.3-0.2c0.8-0.4,1.3,0,1.6,0.8c0.1,0.4,0.1,0.8-0.1,1.2
		c-0.7,1.1-1.7,2.1-2.6,3c-0.7,0.3-1.5,0.3-2,0.9c-0.7,0.7-0.5,1.6-0.6,2.4c0,0.6-0.1,1.2-0.3,1.7c-0.8,1.6-2.6,2.6-3.4,4.3
		c-0.1,0.2-0.2,0.4-0.3,0.6c-0.5,0.5-0.6,1.4-1.1,1.9c-0.6,0.4-1.1,0.9-1.5,1.6c-1.2,1-1.5,2.7-2.8,3.7c-1,1-0.4,2.4-0.9,3.5
		c-0.2,0.3-0.4,0.6-0.7,0.8c-0.9,0.3-1.7,0.8-1.7,2c-0.2,0.8-0.7,1.4-1.3,2c-1.2,1.4-1.2,3.4-2.4,4.8c-0.5,0.6-0.7,1.3-1.1,2
		c-0.3,0.4-0.7,0.8-1.1,1.2c-0.5,0.3-1,0.6-1.1,1.3c-0.2,0.9-0.7,1.6-1.3,2.2c-0.6,0.5-0.7,1.3-0.9,2c-0.1,0.2-0.2,0.4-0.4,0.6
		c-0.8,0.3-1.4-0.1-1.9-0.7c-0.2-3.7-0.3-7.3,0-11c0.7-0.7,0.2-1.9,0.9-2.7c0-0.6,0.1-1.2,0.1-1.8c0.7-0.7,0.2-1.9,0.9-2.6
		c0-1,0.1-1.9,0.1-2.9c0.5-0.4,0.5-1.1,0.9-1.6c0.1-0.8,0-1.7,1-1.9c0.4-0.3,0.8-0.7,0.9-1.2c0.1-0.3,0.3-0.5,0.5-0.8
		c0.1-0.1,0.1-0.2,0.1-0.3c0.5-0.6,0.3-1.5,0.8-2.2c1.4-2,3.4-3.4,4.6-5.5C-540.5,378.5-539.5,378.9-539,378.2z"/>
	<path d="M-327.8,404.7c3.7,0,7.3,0,11,0c1.6,0,2.6,0.1,2.6,2.2c0,2.1-0.8,2.8-2.8,2.7c-1.9-0.1-3.8,0-5.7,0c-0.4,0-1.1-0.2-1.2,0.5
		c-0.1,0.6,0.5,0.5,0.7,0.7c2,2.1,2.4,7.4,0.8,10c-0.5,0.9-1.1,2-1.4,2.8c-1,2.8-3.4,3.4-5.7,3.9c-2.3,0.5-4.7,0.1-7-0.9
		c-3.4-1.5-3.7-4.4-4.6-7.3c-1.2-3.6,0-6.5,1.2-9.6c0.3-0.9-0.4-0.3-0.5-0.5c-1.1-1.2-0.5-2.7-0.4-3.9c0.1-1,1.2-0.5,1.9-0.5
		C-335.3,404.7-331.6,404.7-327.8,404.7z"/>
	<path class="st1" d="M-341.1,450.2c-0.2-3.1,1.4-4.8,4.6-4.5c3.1,0.3,6.3,0,9.5,0.1c1.6,0.1,2.1-0.4,2.1-2c-0.1-1-0.9-2.5,1.4-2.6
		c2.4-0.1,1.8,1.4,2,2.7c0.1,0.7-0.6,2,0.9,1.8c3.1-0.5,3.8,2.2,5.6,4.1c-1.4,0-2.9,0.1-4.3,0c-1.8-0.2-2.3,0.5-2.2,2.2
		c0,0.9,0.9,2.3-0.7,2.7c-1.5,0.4-3.1,0.5-2.6-2c0.5-2.4-0.5-3.2-2.9-2.9c-2.3,0.2-4.7,0-7,0.1c-3.4,0-3.5,0.1-3.6,3.5
		c0,0.9,0,1.5-1.3,1.5c-1.3,0-1.3-0.6-1.2-1.5c0-0.3,0-0.7-0.1-1C-341.6,451.5-341.6,450.9-341.1,450.2z"/>
	<path class="st2" d="M-324.1,401.7c-1.2-0.1-1.1-0.9-1-1.8c0.1-2.3,0.6-4.6-1.8-6.4c-0.7-0.5-1.3-0.8-2-0.8
		c-3.4-0.1-6.8-0.3-10.2-0.2c-2.2,0-1.8-1.3-1.9-2.6c-0.2-1.5,0.5-1.7,1.8-1.7c5.6,0.1,11.1,0.1,16.7,0.1c0.7,1.1,0.7,2.2,0,3.3
		c-0.8,0.1-1.6,0.1-2.8,0.2c3.1,2.9,5.5,5.7,2.7,9.8C-323.1,402.1-323.6,402.1-324.1,401.7z"/>
	<path class="st1" d="M-331.3,433.2c2.7,0,5.5,0.1,8.2,0c1.8-0.1,1.5,1.1,1.4,2.1c-0.1,1,0.6,2.4-1.4,2.4c-5.6-0.1-11.1-0.1-16.7,0
		c-2,0-1.2-1.4-1.2-2.3c0-0.8-0.8-2.3,1.2-2.3C-337,433.2-334.2,433.2-331.3,433.2z"/>
	<path class="st3" d="M-310.6,435.2c0.6,1.6-0.8,2.9-1.4,4.4c-0.2,0.5-1.1,1.6-2.1,1.1c-1.4-0.7-3.5-0.9-3.9-2.7
		c-0.3-1.2-0.8-1.7-1.6-2.2c-1.3-0.9-0.6-1.8,0.1-2.4c1.5-1,3.2-2,4.9-2.7C-312.6,430-310.6,432.4-310.6,435.2z"/>
	<path class="st4" d="M-320.5,367.2c-1.5-1-3-2-4.5-3.1c-0.5-0.4-0.3-1.3-1.2-1.4c-0.4,0-0.9-0.1-1.2-0.4c-1.2-2.1-4.3-1.4-5.5-3.6
		c0.5-2.1,2.3-1.1,3.2-0.9c3.5,0.9,7,2.2,9,5.5C-320.2,364.4-320.4,365.9-320.5,367.2z"/>
	<path class="st5" d="M-452.1,450.1c0-13.6,0.1-27.2,0.1-40.8c0.2-0.4,0.5-0.4,0.9-0.1c0,13.2,0,26.3,0,39.5
		C-451.1,449.3-450.8,450.3-452.1,450.1z"/>
	<path class="st6" d="M-518.6,445.8c2.2,0,4.4,0,6.5,0c0.5,0.6,0.5,1.2,0,1.8c-2.1,0-4.3,0-6.4,0
		C-519.1,447-519.1,446.4-518.6,445.8z"/>
	<path class="st7" d="M-351.9,416.2c0-3.3,0-6.7,0-10c1.2,0.2,0.9,1.2,0.9,2c0,2.7,0,5.4,0,8.1
		C-351.3,416.5-351.6,416.5-351.9,416.2z"/>
	<path class="st8" d="M-562.5,459.2c0,1.3,0,2.6,0,3.9c0.3,0.5,0.4,1.1-0.1,1.6c-1.2-0.2-0.9-1.2-1-1.9c0-2.4,0-4.7,0-7.1
		c0.4-0.3,0.8-0.3,1.2,0.1C-561.9,457-561.9,458.1-562.5,459.2z"/>
	<path class="st9" d="M-479.1,339.8c-1.8,0-3.7-0.1-5.5-0.1c1.8-2.1,4.1-0.6,6.1-0.9c0.7-0.1,1.3,0.1,1.4,1
		C-477.7,340.2-478.4,340.2-479.1,339.8z"/>
	<path class="st10" d="M-550.2,414.1c0.1-0.1,0.2-0.2,0.2-0.4c0.2-0.3,0.5-0.4,0.8-0.3c0.4,0.1,0.8,0.3,1.1,0.5
		c0.2,0.1,0.3,0.3,0.4,0.5c0.1,0.3,0,0.6-0.2,0.8c-0.3,0.7-1.3,1-1,2c-0.3,0.3-0.6,0.3-0.9,0.1c-0.1-0.7-0.4-1.2-1.2-1.1
		c-0.7,0-0.9-0.4-0.8-1.1C-551.6,414.5-550.6,414.9-550.2,414.1z"/>
	<path class="st11" d="M-494,440.7c0.4-1-0.2-2.1,0.4-3.1c0.7-0.5,1.3-0.5,2,0C-491.5,439.4-491.3,441.1-494,440.7z"/>
	<path class="st12" d="M-474.6,356.7c0.5-1.1-0.6-2.7,1-3.6c0.4,2,0,4,0.1,5.9c0,0.7-0.2,1.1-1,1.2
		C-475.3,359-475.2,357.9-474.6,356.7z"/>
	<path class="st13" d="M-479,409.7c0-1.2,0-2.3,0-3.5c0.6-0.5,1.3-0.5,1.9,0c0,1.2,0,2.3,0,3.5C-477.7,410.2-478.4,410.2-479,409.7z
		"/>
	<path class="st14" d="M-279.1,437.7c-1.9-1.8-0.8-4-0.9-6.1C-278.4,433.5-279.4,435.7-279.1,437.7z"/>
	<path class="st15" d="M-553.5,428.7c-0.1,1.4,0.6,3.3-2,3c-0.7-0.7-0.5-1.3-0.1-2c0.1-0.3,0.1-0.5,0.2-0.8
		C-554.9,428.1-554.2,428.2-553.5,428.7z"/>
	<path class="st16" d="M-474.6,356.7c0,1.2,0,2.3,0,3.5c-0.3,0.7,0,1.7-1,2C-475.3,360.4-476.5,358.3-474.6,356.7z"/>
	<path class="st17" d="M-477.1,406.2c-0.6,0-1.3,0-1.9,0c0-0.8-0.1-1.7-0.1-2.5c0.1-0.1,0.2-0.2,0.3-0.3c0.7-0.3,1.2-0.2,1.8,0.3
		C-477.1,404.6-477.1,405.4-477.1,406.2z"/>
	<path class="st18" d="M-292.5,436.1c1.6,1.5,0.6,3.4,0.9,5.1C-293.5,439.8-292.4,437.8-292.5,436.1z"/>
	<path class="st19" d="M-562.6,464.7c0-0.5,0.1-1,0.1-1.6c1.9,1.2,0.6,3,0.9,4.5C-563,467.1-562.2,465.7-562.6,464.7z"/>
	<path class="st20" d="M-383.5,373.8c-1.3,1.6-3,0.7-4.6,0.9C-386.8,372.9-385,373.8-383.5,373.8z"/>
	<path class="st21" d="M-479.1,403.7c-1.6-1.3-0.7-3-0.9-4.5c1.3,0.4,0.8,1.6,1.1,2.5c0.5,0.7,0.5,1.3,0.1,2l-0.1,0L-479.1,403.7z"
		/>
	<path class="st22" d="M-523.1,372.2c0.1-0.3,0.1-0.6,0.2-0.9c0.5-0.6,0.7-1.7,1.9-1.2c0.1,0.3,0.2,0.7,0.4,1c0.2,0,0.4,0.1,0.4,0.3
		c0.1,0.3,0,0.6-0.3,0.8c-0.5,0.3-0.4,1.5-1.4,1.2C-522.5,373.2-523,372.8-523.1,372.2z"/>
	<path class="st23" d="M-518.6,445.8c0,0.6,0,1.2,0.1,1.8c-0.7,0-1.3,0-2,0c-0.6-0.6-0.6-1.2,0-1.8
		C-519.9,445.8-519.2,445.8-518.6,445.8z"/>
	<path class="st24" d="M-479,413.7c0-0.7,0-1.3,0-2c0.6-0.5,1.3-0.6,1.9,0C-476.8,413.2-477.4,413.9-479,413.7z"/>
	<path class="st25" d="M-478.9,403.7c0-0.7,0-1.4-0.1-2c1.5-0.1,2.2,0.5,1.9,2.1C-477.7,403.7-478.3,403.7-478.9,403.7z"/>
	<path class="st26" d="M-521.1,370.1c-1-0.3-0.8,1.5-1.9,1.2c0.1-0.9-0.6-1-1.2-1.2c0.2-1.5,1.4-0.6,2.1-1c0.4-0.2,0.7-0.2,1,0.2
		C-521.1,369.6-521.1,369.8-521.1,370.1z"/>
	<path class="st11" d="M-477.1,411.7c-0.6,0-1.3,0-1.9,0c0-0.7,0-1.3,0-2c0.6,0,1.3,0,1.9,0C-477.1,410.3-477.1,411-477.1,411.7z"/>
	<path class="st27" d="M-473.6,348.8c-1.5-0.9-0.7-2.4-0.9-3.6C-472.8,346-473.5,347.5-473.6,348.8z"/>
	<path class="st28" d="M-550,419.7c0,0.6-0.1,1.2-0.1,1.8c-0.1,0.4-0.3,0.5-0.7,0.4c-0.2-0.1-0.3-0.2-0.4-0.4
		c0.4-1.1-0.7-2.7,1.1-3.4C-549.6,418.7-549.7,419.2-550,419.7z"/>
	<path class="st29" d="M-322.6,391.6c0-1.1,0-2.2,0-3.3c1.7-0.2,0.9,1.1,1,1.8C-321.5,390.7-321.1,391.9-322.6,391.6z"/>
	<path class="st29" d="M-382.6,452.1c0.9-1.6,2.4-0.9,3.7-0.8C-379.9,452.8-381.3,451.9-382.6,452.1z"/>
	<path class="st17" d="M-436.5,373.8c-0.9,1.5-2.4,0.7-3.6,0.9C-439.2,373-437.7,373.7-436.5,373.8z"/>
	<path class="st6" d="M-483.5,386.8c0-1.1-0.6-2.4,0.9-3.1C-482.9,384.7-481.8,386.2-483.5,386.8z"/>
	<path class="st30" d="M-560.1,445.7c0,0.7,0,1.3,0,2c-0.4,0.4-0.9,0.4-1.4,0.1C-561.5,446.7-561.9,445.5-560.1,445.7z"/>
	<path class="st31" d="M-486,431.7c-0.1-1.1-0.3-2.3,1.4-2.1C-484.6,430.7-484.1,432-486,431.7z"/>
	<path class="st16" d="M-451.1,409.2c-0.3,0-0.6,0.1-0.9,0.1c0.2-1.1-0.8-2.4,0.9-3.1C-451.1,407.2-451.1,408.2-451.1,409.2z"/>
	<path class="st32" d="M-520.6,445.8c0,0.6,0,1.2,0,1.8c-0.5,0.1-1,0.1-1.4,0.2c-0.1-0.1-0.2-0.2-0.3-0.3c-0.3-0.7-0.3-1.3,0.3-1.8
		C-521.5,445.8-521,445.8-520.6,445.8z"/>
	<path class="st33" d="M-512.1,447.6c0-0.6,0-1.2,0-1.8c0.5,0,1,0,1.5,0c0.5,0.6,0.5,1.3-0.1,1.9
		C-511.1,447.6-511.6,447.6-512.1,447.6z"/>
	<path class="st31" d="M-561.5,447.8c0.5,0,0.9-0.1,1.4-0.1c0,0.7,0,1.3,0,2c-0.4,0.4-0.9,0.5-1.4,0.1
		C-561.5,449.1-561.5,448.4-561.5,447.8z"/>
	<path class="st34" d="M-561.6,451.2c0,1,0,2,0,3c-0.2,0.3-0.5,0.4-0.8,0.3c-0.1-0.1-0.2-0.1-0.2-0.2
		C-562.2,453.2-563.2,451.7-561.6,451.2z"/>
	<path class="st35" d="M-525.5,370.3c-0.6,1.8-2.1,0.6-3.1,0.9C-527.9,369.6-526.6,370.3-525.5,370.3z"/>
	<path class="st36" d="M-505.1,355.2c0.2,1.8-1,1.5-2.1,1.4c0-0.5,0.1-0.9,0.1-1.4C-506.4,354.7-505.7,354.7-505.1,355.2z"/>
	<path class="st24" d="M-534.5,459.2c0.5,0,1-0.1,1.4-0.1c0.1,1.1,0.3,2.3-1.5,2.1C-535.1,460.5-535.1,459.9-534.5,459.2z"/>
	<path class="st37" d="M-501.6,351.2c-0.3,0.7-0.8,1-1.5,1.1c0.3-1,0-2.3,1.5-2.6C-501.1,350.2-501.1,350.7-501.6,351.2z"/>
	<path class="st28" d="M-551,423.2c-0.2,0.5-0.5,0.9-1,1c0-1-0.4-2.1,0.9-2.6c0,0,0.2,0.2,0.2,0.2
		C-550.6,422.2-550.6,422.7-551,423.2z"/>
	<path class="st38" d="M-476.9,369.4c0.1-0.9-0.8-2.2,0.8-2.7C-476.3,367.6-475.3,368.9-476.9,369.4z"/>
	<path class="st38" d="M-550.1,395.6c-0.1,0.9,0.8,2.2-0.9,2.6C-550.9,397.3-551.7,396-550.1,395.6z"/>
	<path class="st39" d="M-516.6,366.7c-0.3,0.8,0.9,2.3-1,2.5C-517.2,368.4-518.4,366.9-516.6,366.7z"/>
	<path class="st40" d="M-550,419.7c0-0.5-0.1-1-0.1-1.5c0.1-0.3,0.1-0.6,0.2-0.8c0.3,0,0.6-0.1,0.9-0.1
		C-549.2,418.1-548.5,419.3-550,419.7z"/>
	<path class="st41" d="M-551.1,400.1c0,1,0.7,2.2-0.9,2.7C-551.9,401.8-552.7,400.5-551.1,400.1z"/>
	<path class="st9" d="M-521.1,369.3c-0.3-0.1-0.7-0.1-1-0.2c0.1-0.7-0.2-1.5,0.4-2.2C-520.7,367.5-521.2,368.5-521.1,369.3z"/>
	<path class="st42" d="M-537.6,375.7c-0.3,0.8,0.8,2.3-1.1,2.4C-538.3,377.3-539.6,375.8-537.6,375.7z"/>
	<path class="st43" d="M-550.2,414.1c-0.1,1.2-1,1-1.8,1c0-0.5,0-1,0-1.4C-551.4,413.8-550.8,414-550.2,414.1z"/>
	<path class="st44" d="M-354,427.7c0-1-0.4-2.1,0.9-2.6C-353,426.1-352.5,427.3-354,427.7z"/>
	<path class="st24" d="M-555.6,429.7c0,0.7,0.1,1.4,0.1,2c-0.1,0.5-0.5,0.7-1,0.6C-556.4,431.4-557.2,430.2-555.6,429.7z"/>
	<path class="st45" d="M-390.6,451.2c0.9,0.2,2.2-0.6,2.6,0.9C-389,452.2-390.1,452.7-390.6,451.2z"/>
	<path class="st46" d="M-484.5,339.8c-0.4,1.6-1.6,0.8-2.6,0.9C-486.6,339.3-485.5,339.7-484.5,339.8z"/>
	<path class="st43" d="M-270.1,453.1c0.5-1.5,1.6-0.9,2.6-0.9C-267.9,453.7-269.1,453-270.1,453.1z"/>
	<path class="st31" d="M-488.1,343.1c-0.3,0-0.7,0-1,0c0.2-0.9-0.9-2.3,1.1-2.4C-487.5,341.6-487.4,342.4-488.1,343.1z"/>
	<path class="st47" d="M-488.1,343.1c0-0.8,0.1-1.6,0.1-2.4c0.3,0,0.7,0,1,0C-487.3,341.5-486.3,343-488.1,343.1z"/>
	<path class="st48" d="M-475.9,343.1c-1.9-0.2-0.9-1.6-1.1-2.5C-474.9,340.7-476.2,342.3-475.9,343.1z"/>
	<path class="st49" d="M-265.6,447.8c-1.5-0.5-0.7-1.7-0.8-2.7C-265,445.7-265.5,446.8-265.6,447.8z"/>
	<path class="st42" d="M-548.1,469.2c0.4-1.6,1.6-0.9,2.5-1c-0.1,0.6-0.5,0.8-1,1C-547.1,469.6-547.6,469.6-548.1,469.2z"/>
	<path class="st24" d="M-548.1,469.2c0.5,0,1,0,1.5,0.1c-0.4,1.6-1.7,0.8-2.6,0.9C-549.2,469.3-548.6,469.3-548.1,469.2z"/>
	<path class="st50" d="M-561.5,449.8c0.5,0,0.9-0.1,1.4-0.1c0.2,1.1-0.3,1.6-1.4,1.6C-561.5,450.7-561.5,450.2-561.5,449.8z"/>
	<path class="st36" d="M-491.6,437.7c-0.7,0-1.3,0-2,0c0.2-1.4,1.3-0.8,2.1-0.9C-491.5,437.1-491.5,437.4-491.6,437.7z"/>
	<path class="st51" d="M-545.6,384.7c-0.2,0.8,0.8,2-0.8,2.2C-546.4,386-547.1,384.9-545.6,384.7z"/>
	<path class="st52" d="M-518.5,370.2c0,0.3,0,0.6,0,0.9c-0.6,0.6-1.3,0.6-1.9,0.1l-0.1,0c0,0-0.1-0.1-0.1-0.1
		C-520.4,369.9-519.4,370.2-518.5,370.2z"/>
	<path class="st53" d="M-553.5,428.7c-0.6,0.1-1.3,0.1-1.9,0.2c-0.1-1.5,1.1-1,1.8-1.2C-553.3,428-553.3,428.3-553.5,428.7
		L-553.5,428.7z"/>
	<path class="st54" d="M-512,362.2c0,0.3-0.1,0.6-0.1,0.9c-0.6,0.6-1.3,0.6-2,0.1C-513.9,361.8-512.8,362.3-512,362.2z"/>
	<path class="st36" d="M-532,457.8c0.1-0.8-0.6-1.9,1-2.1c0.5,0.7,0.5,1.3-0.1,2C-531.4,457.7-531.7,457.8-532,457.8z"/>
	<path class="st51" d="M-539,378.2c-0.1,1.6-1.4,0.7-2,1C-540.9,377.7-539.8,378.4-539,378.2z"/>
	<path class="st55" d="M-353,421.8c0-0.8-0.5-1.8,0.9-2.1c0,0.7,0,1.3,0,2C-352.4,422-352.7,422-353,421.8z"/>
	<path class="st53" d="M-509.5,445.8c0.3,0,0.7,0,1,0c0.5,0.7,0.5,1.3,0,1.9c-0.3,0-0.7,0-1,0C-510.1,447-510.1,446.4-509.5,445.8z"
		/>
	<path class="st56" d="M-479,373.3c0-0.3,0-0.7,0-1c0.6-0.6,1.2-0.6,1.9-0.1C-477,373.8-478.2,373.2-479,373.3z"/>
	<path class="st42" d="M-514,363.2c0.7,0,1.3,0,2-0.1c-0.1,1.6-1.3,0.9-2,1C-514.1,363.9-514.1,363.5-514,363.2z"/>
	<path class="st46" d="M-477.1,372.2c-0.6,0-1.2,0.1-1.9,0.1c-0.1-1.6,1.2-0.9,1.9-1.1C-477.1,371.5-477.1,371.8-477.1,372.2z"/>
	<path class="st28" d="M-505.1,355.2c-0.7,0-1.3,0-2,0c0.2-1.5,1.3-0.9,2.1-1C-505,354.6-505,354.9-505.1,355.2z"/>
	<path class="st23" d="M-491.5,344.2c-0.1,1.6-1.3,0.8-2.1,0.9C-493.4,343.6-492.3,344.4-491.5,344.2z"/>
	<path class="st38" d="M-479.1,339.8c0.7,0,1.4,0,2-0.1c0,0.3,0.1,0.6,0.1,0.9C-477.8,340.6-478.8,341.2-479.1,339.8z"/>
	<path class="st28" d="M-509.5,445.8c0,0.6,0,1.3,0,1.9c-0.3,0-0.7,0-1,0c0-0.6,0-1.2,0.1-1.9C-510.2,445.8-509.9,445.8-509.5,445.8
		z"/>
	<path class="st37" d="M-508.6,447.7c0-0.6,0-1.3,0-1.9c0.3,0,0.7,0,1,0C-507.7,446.5-507.2,447.6-508.6,447.7z"/>
	<path class="st47" d="M-524,449.8c0.1-0.8-0.6-1.9,0.9-2.1c0.6,0.7,0.5,1.3,0,2C-523.4,449.7-523.7,449.8-524,449.8z"/>
	<path class="st28" d="M-523.1,449.7c0-0.7,0-1.3,0-2l0,0c0.3-0.3,0.6-0.3,0.9-0.1c0,0,0.1,0.2,0.1,0.2
		C-522.2,448.5-521.7,449.7-523.1,449.7z"/>
	<path class="st7" d="M-351.9,416.2c0.3,0,0.6,0,0.9,0c-0.1,0.8,0.3,1.8-0.9,2C-352,417.5-351.9,416.9-351.9,416.2z"/>
	<path class="st20" d="M-341.1,450.2c0,0.7,0,1.4,0,2.1C-342.5,451.5-342.5,450.9-341.1,450.2z"/>
	<path class="st40" d="M-527.5,452.2c0.2-1.5,1.3-0.9,2.1-1c0,0.3-0.1,0.6-0.1,0.9C-526.2,452.7-526.9,452.7-527.5,452.2z"/>
	<path class="st57" d="M-527.5,452.2c0.7,0,1.3,0,2,0c-0.1,1.5-1.3,0.9-2,1C-527.6,452.9-527.6,452.5-527.5,452.2z"/>
	<path class="st28" d="M-531.1,457.7c0-0.7,0-1.3,0.1-2c0.3,0,0.6-0.1,0.9-0.1C-530.2,456.4-529.6,457.6-531.1,457.7z"/>
	<path class="st58" d="M-534.5,459.2c0,0.7,0,1.3-0.1,2c-0.3,0-0.6,0-1,0C-535.4,460.4-536.1,459.2-534.5,459.2z"/>
	<path class="st31" d="M-541.1,464.7c0.1-1.6,1.3-0.8,2.1-0.9C-539.1,465.3-540.3,464.5-541.1,464.7z"/>
	<path class="st59" d="M-543,466.7c0.1-0.8-0.5-2,1-2c0.5,0.7,0.5,1.3-0.1,1.9C-542.4,466.7-542.7,466.7-543,466.7z"/>
	<path class="st52" d="M-542.1,466.7c0-0.6,0.1-1.3,0.1-1.9c0.3,0,0.6,0,0.9,0C-541.2,465.4-540.5,466.7-542.1,466.7z"/>
	<path class="st16" d="M-546.6,388.1c0,1.1-0.7,1.1-1.5,1.1c0-0.3,0-0.6,0.1-1C-547.6,387.8-547.1,387.8-546.6,388.1z"/>
	<path class="st39" d="M-501.6,351.2c0-0.5,0-1,0.1-1.5c0.3,0,0.6,0,1,0C-500.6,350.4-500.3,351.3-501.6,351.2z"/>
	<path class="st16" d="M-498.1,348.7c-0.1,1.2-0.9,1-1.7,0.9c0.1-0.3,0.1-0.6,0.2-0.9C-499.1,348.3-498.6,348.3-498.1,348.7z"/>
	<path class="st60" d="M-441.1,388.1c0.1-1.2,0.9-0.9,1.6-0.8C-439.7,388.3-440.4,388.3-441.1,388.1z"/>
	<path class="st44" d="M-482.5,383.7c-0.2-0.9,0-1.4,1-1.5C-481.5,382.9-481.5,383.7-482.5,383.7z"/>
	<path class="st61" d="M-498.1,348.7c-0.5,0-1,0-1.5,0c0-1.2,0.9-1,1.6-0.9C-498,348.1-498,348.4-498.1,348.7z"/>
	<path class="st62" d="M-546.6,388.1c-0.5,0-0.9,0.1-1.4,0.1c-0.2-1.2,0.6-1.1,1.4-1.1C-546.6,387.5-546.6,387.8-546.6,388.1z"/>
	<path class="st63" d="M-424,379.2c-0.1-0.5-0.1-1-0.2-1.4c0.5,0,1,0,1.1,0.6C-423,379-423.5,379.2-424,379.2z"/>
	<path class="st49" d="M-503.2,445.1c0.1-1.2,0.8-1,1.6-0.9C-501.6,445.3-502.4,445.2-503.2,445.1z"/>
	<path class="st36" d="M-481.4,423.4c-0.1-0.8-0.3-1.6,0.8-1.7C-480.7,422.4-480.1,423.4-481.4,423.4z"/>
	<path class="st64" d="M-353,421.8c0.3,0,0.6-0.1,0.9-0.1c0.1,0.8,0.2,1.5-0.9,1.6C-353,422.8-353,422.3-353,421.8z"/>
	<path class="st65" d="M-483.5,427.7c-0.1-0.8,0-1.4,1-1.5C-482.3,427.1-482.6,427.6-483.5,427.7z"/>
	<path class="st46" d="M-553.5,428.7c0-0.3-0.1-0.7-0.1-1c0.3-0.2,0.7-0.4,1-0.5C-552.5,427.9-552.5,428.6-553.5,428.7z"/>
	<path class="st66" d="M-324.1,401.7c0.5,0,1,0,1.5-0.1c0.1,0.4,0.3,0.9-0.5,1C-323.8,402.7-324.1,402.4-324.1,401.7z"/>
	<path class="st67" d="M-479.9,374.8c-0.3-0.9-0.1-1.5,0.9-1.6C-479.1,373.9-478.7,374.8-479.9,374.8z"/>
	<path class="st68" d="M-529.5,371.2c0,1.1-0.7,1.1-1.6,1C-531,371.2-530.3,371.1-529.5,371.2z"/>
	<path class="st69" d="M-557.1,436.2c-0.1,0.7,0.3,1.6-0.9,1.6C-558.3,436.9-558,436.4-557.1,436.2z"/>
	<path class="st70" d="M-562.6,455.7c-0.3,0-0.6,0-0.9,0c0-0.7-0.1-1.4,0.9-1.5c0.1,0.1,0.2,0.1,0.2,0
		C-562.1,454.8-562.1,455.3-562.6,455.7z"/>
	<path class="st67" d="M-549.1,391.1c0.1,0.7,0.2,1.5-0.9,1.6C-550.3,391.9-550.1,391.3-549.1,391.1z"/>
	<path class="st30" d="M-480.6,391.8c-1.2,0-1-0.8-1-1.6C-480.5,390.3-480.5,391-480.6,391.8z"/>
	<path class="st47" d="M-508.6,358.6c0.1,0.8,0.2,1.6-1,1.6c-0.4-0.5-0.4-1,0-1.5C-509.2,358.7-508.9,358.6-508.6,358.6z"/>
	<path class="st20" d="M-509.5,358.7c0,0.5,0,1,0,1.5c-0.3,0-0.6,0.1-0.9,0.1C-510.5,359.5-510.7,358.7-509.5,358.7z"/>
	<path class="st71" d="M-499.6,443.1c0-1.3,0.9-0.9,1.7-0.8C-498,443.7-498.9,443.1-499.6,443.1z"/>
	<path class="st61" d="M-561.5,468.1c0.8-0.1,1.6-0.1,1.4,1.1C-560.8,469.2-561.6,469.3-561.5,468.1z"/>
	<path class="st72" d="M-553.6,471.1c0.2-1,0.9-1,1.7-0.8C-552,471.6-552.9,471.2-553.6,471.1z"/>
	<path class="st0" d="M-542.1,434.3c0.4,1.1,1,2.1,2.4,2c0.8,0,1.2,0.5,1.2,1.3c0.7,1,0.8,2.4,1.8,3.1c0.7,0.2,1.4,0.4,2,0.5
		c0.5,0.4,1.2,0.4,1.6,0.9c0.3,0.2,0.7,0.3,1,0.5c2.5,1.1,1.5,2.1-0.1,3c-0.2,0.3-0.5,0.5-0.8,0.6c-0.7,0.1-1.1,0.6-1.3,1.2
		c-0.1,0.2-0.2,0.4-0.4,0.5c-0.3,0.2-0.6,0.3-0.8,0.4c-0.6,0.3-0.7,1-1.1,1.5c-0.8,0.5-1.7,1-2.5,1.4c-0.6,0.5-1.5,0.3-2.1,0.8
		c-0.3,0-0.6,0.1-0.9,0.1c-0.5,0.4-1,0.4-1.5,0c-2.6-1.2-3.7-4.8-2-8.1c1-1,0-2.5,1-3.6c0-1.3,0.1-2.6,0.1-3.9
		c0.4-0.4,0.5-1.1,0.9-1.6c0-0.3,0.1-0.6,0.1-0.9C-543,433.8-542.6,433.8-542.1,434.3z"/>
	<path class="st0" d="M-488,373.3c0,0.8-0.1,1.5-0.1,2.3c-0.9,1.1,0,2.7-0.9,3.8c-0.5,0.3-1.1,0.3-1.5-0.2c0-0.3-0.1-0.6-0.1-0.8
		c-0.6-0.5-0.4-1.7-1.4-1.9c-0.6-0.1-1.1-0.3-1.6-0.6c-1-1.6-2.5-2.5-4.4-2.7c-0.5-0.4-1.2-0.4-1.6-0.8c-1,0.1-1.8-0.8-2.5-1.2
		c-1.2-0.7-0.5-1.5,0.6-1.9c0.9-0.6,0.2-1.9,1-2.5l0.1,0c0.4-0.7,1.5-0.4,1.8-1.3c0.2-0.3,0.4-0.5,0.7-0.7c1.5,0,2.6-1.2,3.9-1.6
		c0.7-0.8,1.9-0.2,2.5-1l0-0.1c1.2-0.6,2.3-0.7,3.5,0.1c1.8,2.1,1.2,4.5,1.1,6.9C-488.1,370.4-487,372.1-488,373.3z"/>
	<path class="st37" d="M-523.1,372.2c0.8,0.1,1.1,0.5,1.2,1.3c-0.5,0.6-1.1,1.2-1.6,1.8c-0.1,1,0.3,2.1-0.5,3
		c-1.3,0.1-0.9,1.4-1.5,2c-0.5,0.6-1.3,0.7-1.9,1.2c-0.2,0.1-0.5,0.1-0.7,0.1c-0.7-0.3-0.8-0.8-0.5-1.5c0.1-0.5,0.1-1.1,0.2-1.6
		c0.1-0.4,0.4-0.5,0.8-0.6c1.3-0.1,1.6-1,1.6-2.1c0.1-0.4,0.3-0.6,0.5-0.9C-525.2,373.4-524,372.9-523.1,372.2z"/>
	<path class="st70" d="M-542,400.2c-0.2-0.9,1.2-1.1,1-2c0.7-0.7,1.4-1.3,1.9-2.1c0.2-0.2,0.3-0.4,0.5-0.6c0.6,0,1,0.3,1.4,0.7
		c0.3,0.7,0.2,1.3-0.3,1.9c-0.5,0.8-1,1.6-1.5,2.5c-0.4,0.5-1,0.5-1.6,0.5c-0.5-0.1-0.9-0.3-1.2-0.6
		C-541.9,400.4-542,400.3-542,400.2z"/>
	<path class="st22" d="M-544.6,405.2c0.7-1.7,0.8-3.8,2.5-5l0.2,0.1c0.2,0.4,0.4,0.8,0.8,1.1c0,0.1,0.1,0.2,0.1,0.3
		c0.1,0.9-0.9,1.2-1.1,2c-0.5,0.4-0.6,1.1-0.9,1.7c-0.1,0.8-0.5,1.3-1,1.9c-0.3,0.2-0.5,0.2-0.8-0.1
		C-545.1,406.5-545.1,405.8-544.6,405.2z"/>
	<path class="st73" d="M-528.7,380c0.1,0.7,0.3,1.2,1.1,1.2c0.3,0.3,0.3,0.7-0.1,1c-1.5,0.2-1.7,1.6-2.3,2.6
		c-0.3,0.2-0.7,0.4-1.1,0.4c-0.4,0-0.8-0.2-1-0.5C-531.6,382.6-530,381.4-528.7,380z"/>
	<path class="st74" d="M-537.6,396.2c-0.5,0-0.9-0.2-1.1-0.6c0.2-1.3-0.8-3,1.1-3.9c1.3-0.5,1.4,0.2,1.1,1.2
		c0.1,1.1,0.2,2.1-0.2,3.2C-536.9,396.5-537.2,396.5-537.6,396.2z"/>
	<path class="st22" d="M-536.5,392.9c-0.1-0.7-0.3-1.2-1.1-1.2c1.3-0.9,1.1-3,2.9-3.6c0.1,0.1,0.2,0.1,0.3,0.2
		c0.2,0.3,0.3,0.6,0.3,1c0,0.3,0,0.7,0,1c-0.1,0.4-0.2,0.6-0.4,0.9C-535.3,391.6-535.3,392.9-536.5,392.9z"/>
	<path class="st75" d="M-532.1,384.7c0.4,0,0.8,0,1.2,0c0.4,0.7,0.4,1.4,0,2.1c-1.1,0.5-0.6,2.3-2,2.5c-0.1,0-0.2-0.1-0.3-0.1
		c-0.4-0.3-0.8-0.6-1.1-0.9c-0.1-0.1-0.2-0.1-0.3-0.1c-0.2-1.3,0.5-1.5,1.6-1.5C-532.3,386.2-532.7,385.2-532.1,384.7L-532.1,384.7z
		"/>
	<path class="st76" d="M-549.1,411.7c0.4-0.8,0.8-1.6,1.2-2.4c0.4-0.5,0.9-0.6,1.5-0.6c0.6,0.2,1.2,0.3,0.9,1.1c0,0.3,0,0.6-0.1,0.9
		c-0.5,0.3-0.5,0.9-1,1.2c-0.4,0.2-0.9,0.3-1.3,0.3c-0.4,0-0.7-0.1-1-0.3C-549,411.9-549.1,411.8-549.1,411.7z"/>
	<path class="st77" d="M-536.7,440.7c-2.8,0.2-1.7-1.8-1.8-3.1C-535.9,437.5-537.1,439.6-536.7,440.7z"/>
	<path class="st47" d="M-562.6,455.7c0.1-0.5,0.1-1,0.2-1.5c0.3,0,0.6-0.1,0.8-0.1c-0.3,1.7,1,3.7-0.9,5.1
		C-562.5,458-562.6,456.9-562.6,455.7z"/>
	<path class="st8" d="M-545.5,409.8c-0.2-0.5-0.6-0.6-1.1-0.6c-0.3-0.3-0.3-0.7,0-1c0.1-0.5,0.3-1.1,1-1c0.3-0.3,0.7-0.3,1,0
		c0.2,0,0.5,0.1,0.7,0.1C-544.2,408.3-544.1,409.5-545.5,409.8z"/>
	<path class="st42" d="M-493.6,375.8c0.7,0,1.3,0,2,0c0.7,0.8,0.6,1.6,0.1,2.4C-493.7,378.6-493.6,377.2-493.6,375.8z"/>
	<path class="st78" d="M-489.1,379.1c0.5-1.1-0.6-2.7,1-3.5c-0.1,1.6,1,3.4-1,4.6C-489.4,379.8-489.4,379.5-489.1,379.1z"/>
	<path class="st11" d="M-488,373.3c0.2-1.4-1-3.1,1-4.1C-487.2,370.6-486.3,372.3-488,373.3z"/>
	<path class="st10" d="M-548,411.7c0.5,0,1,0,1.5,0c0.6,0.7,0.5,1.3,0,2c-0.1,0.1-0.1,0.2-0.1,0.3c-0.4,0.6-0.9,0.5-1.4,0.2
		l-0.2-0.2C-548.7,413.2-548.7,412.4-548,411.7z"/>
	<path class="st79" d="M-488.1,362.3c-1.2,0-2.3-0.1-3.5-0.1C-490.4,360.6-489.2,360.6-488.1,362.3z"/>
	<path class="st80" d="M-544.6,440.6c-0.2,1.2,0.8,2.8-1,3.6C-545.5,442.9-546.1,441.5-544.6,440.6z"/>
	<path class="st81" d="M-546.5,413.7c0-0.7,0-1.3,0-2c0.2-0.5,0.5-0.9,1-1C-545.8,411.7-544.9,413.2-546.5,413.7z"/>
	<path class="st16" d="M-533,447.8c-0.1,1-0.1,2.1-1.6,1.8c-0.5-0.7-0.5-1.3,0.1-2l0,0c0.3-0.4,0.7-0.4,1.2-0.3
		C-533.2,447.5-533,447.6-533,447.8z"/>
	<path class="st48" d="M-524.1,378.2c0.2-1-0.5-2.1,0.5-3C-522.9,376.3-522.4,377.4-524.1,378.2z"/>
	<path class="st39" d="M-500.5,366.7c-0.3,0.8,0.8,2.3-1,2.5C-501.2,368.4-502.4,366.9-500.5,366.7z"/>
	<path class="st24" d="M-498.1,365.7c-0.3,1.6-1.5,0.9-2.4,1.1c0-0.6,0.4-0.9,0.9-1.1C-499.1,365.3-498.6,365.3-498.1,365.7z"/>
	<path class="st53" d="M-491.5,378.2c0-0.8-0.1-1.6-0.1-2.4c1.7,0.3,0.8,1.6,1,2.5C-490.9,378.2-491.2,378.2-491.5,378.2z"/>
	<path class="st82" d="M-491.5,362.2c-0.3,1.6-1.7,0.7-2.5,1C-493.8,361.5-492.5,362.3-491.5,362.2z"/>
	<path class="st83" d="M-520.5,371.2c0.6,0,1.3,0,1.9-0.1c-0.1,1.4-1.2,0.9-2,1C-520.5,371.9-520.5,371.6-520.5,371.2z"/>
	<path class="st28" d="M-531,386.8c0-0.7,0-1.4,0-2.1c0.3,0,0.6,0,1,0C-530.2,385.5-529.3,386.8-531,386.8z"/>
	<path class="st16" d="M-527.7,382.1c0-0.3,0.1-0.6,0.1-1l0.1,0c0.6-0.6,1.3-0.6,1.9-0.1C-525.7,382.6-526.8,382.1-527.7,382.1z"/>
	<path class="st56" d="M-525.6,381.1c-0.6,0-1.3,0.1-1.9,0.1c0-1.5,1.2-0.9,2-1C-525.6,380.5-525.6,380.8-525.6,381.1z"/>
	<path class="st40" d="M-533,445.7c0.3,0,0.6-0.1,0.9-0.1c0,0.8,0.3,1.8-0.9,2.2c0,0-0.1-0.2-0.1-0.2
		C-533.6,447-533.6,446.3-533,445.7z"/>
	<path class="st59" d="M-522.1,447.6c-0.3,0-0.6,0.1-0.9,0.1c0.1-0.8-0.5-2,1-2C-522,446.4-522.1,447-522.1,447.6z"/>
	<path class="st9" d="M-536.5,449.8c0.1-0.8-0.5-1.9,1-2.1c0.5,0.7,0.5,1.3-0.1,2C-535.9,449.7-536.2,449.8-536.5,449.8z"/>
	<path class="st62" d="M-535.6,449.7c0-0.7,0-1.3,0.1-2c0.3,0,0.6,0,1,0c0,0.7,0,1.3-0.1,2C-534.9,449.7-535.2,449.7-535.6,449.7z"
		/>
	<path class="st84" d="M-541,400.8c0.6,0,1.3-0.1,1.9-0.1c0.1,1.6-1.2,0.8-1.9,1l-0.1,0.1l-0.1-0.1
		C-541.4,401.3-541.3,401-541,400.8z"/>
	<path class="st39" d="M-541.1,452.1c0.2-1.5,1.4-0.7,2.1-0.8C-539.2,452.9-540.3,452-541.1,452.1z"/>
	<path class="st47" d="M-537.6,396.2c0.3,0,0.6-0.1,0.9-0.1c0,0.8,0.6,1.9-0.9,2.2C-537.5,397.5-537.6,396.9-537.6,396.2z"/>
	<path class="st38" d="M-489.1,379.1c0,0.4,0,0.7,0,1.1c-0.8,0-1.5,0-1.4-1.1C-490,379.1-489.6,379.1-489.1,379.1z"/>
	<path class="st16" d="M-548,414.2c0.5-0.1,0.9-0.1,1.4-0.2c0.1,1.1-0.6,1.2-1.4,1.2C-548,414.9-548,414.6-548,414.2z"/>
	<path class="st16" d="M-551,423.2c0-0.5,0-1,0-1.5c0.3-0.1,0.6-0.1,0.9-0.2C-550.1,422.3-549.9,423.1-551,423.2z"/>
	<path class="st23" d="M-542.9,405.4c0-0.7-0.3-1.6,0.9-1.7C-542.2,404.3-541.6,405.3-542.9,405.4z"/>
	<path class="st58" d="M-499.6,372.3c0.7,0,1.6-0.5,1.6,0.8C-498.7,373.1-499.6,373.6-499.6,372.3z"/>
	<path class="st85" d="M-542.1,434.3c-0.5,0-0.9,0-1.4-0.1c-0.1-0.5,0-1,0.7-1C-542.2,433.3-542.1,433.8-542.1,434.3z"/>
	<path class="st86" d="M-543.6,452.3c0.5,0,1,0,1.5,0c0,0.6-0.2,1-0.9,0.9C-543.5,453.1-543.5,452.7-543.6,452.3z"/>
	<path class="st46" d="M-498.1,365.7c-0.5,0-1,0-1.5,0c0-1.2,0.9-1,1.6-0.9C-498,365.1-498,365.4-498.1,365.7z"/>
	<path class="st87" d="M-543.6,435.2c0.3,0.8,0,1.4-0.9,1.6C-544.5,436-544.7,435.2-543.6,435.2z"/>
	<path class="st46" d="M-533,442.2c-0.7,0-1.6,0.4-1.6-0.9C-533.9,441.2-533.1,441-533,442.2z"/>
	<path class="st21" d="M-534.5,391.3c0-0.3,0-0.6,0-0.9c0.4-0.5,0.9-0.5,1.4-0.1C-532.9,391.3-533.7,391.3-534.5,391.3z"/>
	<path class="st53" d="M-533.1,390.2c-0.5,0-0.9,0.1-1.4,0.1c0-0.4,0-0.8,0-1.1c0.4-0.4,0.9-0.4,1.4-0.2c0.1,0.1,0.1,0.2,0.1,0.3
		C-533,389.6-533.1,389.9-533.1,390.2z"/>
	<path class="st88" d="M-387.1,441.3c-3.3-0.1-6.1-1.2-8.8-3.4c-3.1-2.6-5-5.7-6.8-9.2c-0.4-0.5-0.5-1.1-0.9-1.6
		c-0.2-2.1-0.4-4.3-0.6-6.4c-0.9-3.5-0.3-7.1-0.4-10.6c0-1.6-0.4-3.3,0.4-4.9c0.1-5,2.4-9.3,5.2-13.1c2.1-2.9,5.2-5.3,9-6.5
		c2.5-0.8,4.9-0.9,7.4-0.8c0.7,0.7,1.9,0.2,2.6,0.9c3.3,0.5,5.7,2.1,8,4.5c2.3,2.4,4,4.8,5,7.9c0.2,0.7,0.3,1.4,0.5,2.1
		c0.4,0.5,0.4,1.1,0.9,1.6c0.1,0.6,0.1,1.3,0.2,1.9c0.3,0.4,0.4,1,0.4,1.5c0.2,1.5-0.4,3.1,0.4,4.6c0.1,0.7,0.1,1.3,0.2,2
		c0.5,0.8,0.5,1.7,0,2.5c-0.1,0.7-0.1,1.3-0.2,2c-0.9,1.4,0.1,3.2-0.8,4.7c0.3,2.2-0.7,4.2-1.1,6.3c-0.5,0.4-0.5,1.1-0.9,1.6
		c-0.9,4.6-4.5,7.1-7.6,10c-2.1,1.9-4.7,2.4-7.4,2.6C-384,441.9-385.6,441.9-387.1,441.3z"/>
	<path class="st83" d="M-404.1,405.2c0,5.2,0,10.3,0,15.5c-0.9-0.1-0.9-0.8-0.9-1.5c0-4.2,0-8.4,0-12.6
		C-405.1,406-405,405.3-404.1,405.2z"/>
	<path class="st89" d="M-365.5,420.9c0.1-1.6-0.9-3.4,0.8-4.7C-364.9,417.7-363.7,419.6-365.5,420.9z"/>
	<path class="st90" d="M-364.6,409.7c-1.8-1.2-0.6-3-0.9-4.6c0.3-0.2,0.6-0.2,0.9,0.2C-364.6,406.8-364.6,408.2-364.6,409.7z"/>
	<path class="st29" d="M-387.1,441.3c1.5,0,3,0,4.6,0C-384,442.8-385.6,442.9-387.1,441.3z"/>
	<path class="st91" d="M-364.5,414.2c0-0.8,0-1.7,0-2.5C-363,412.5-363,413.4-364.5,414.2z"/>
	<path class="st92" d="M-379.9,385.6c-1,0-2.2,0.7-2.6-0.9C-381.6,384.9-380.4,384-379.9,385.6z"/>
	<path class="st93" d="M-364.6,405.3c-0.3-0.1-0.6-0.1-0.9-0.2c0-0.5,0-1,0-1.5C-364.4,403.8-364.5,404.5-364.6,405.3z"/>
	<path class="st94" d="M-403.5,427.1c0.9,0.2,1.1,0.8,0.9,1.6C-403.6,428.6-403.6,427.9-403.5,427.1z"/>
	<path class="st87" d="M-367.5,428.7c-0.3-0.9,0.1-1.3,0.9-1.6C-366.5,427.9-366.6,428.6-367.5,428.7z"/>
	<path class="st95" d="M-365.6,401.7c-1.1-0.1-0.9-0.9-0.9-1.6C-365.4,400.2-365.5,401-365.6,401.7z"/>
	<path class="st96" d="M-341.2,364.7c-2.4-0.9-3.8-2.7-2.7-4.5c1.2-1.7,3.4,0.1,5.4,0.1C-339.7,361.8-340.9,363-341.2,364.7z"/>
	<path class="st0" d="M-320.6,378.2c-1,0-2.1,0.3-1.1-1.5c0.4-0.7,1.6-1.3,1.2-2.6c-0.2-0.6,0.9-0.3,1.4-0.4c0.8-0.1,1,0.3,1,1
		c0,1.2,0,2.3,0,3.5C-318.9,378.8-319.8,378.8-320.6,378.2z"/>
	<path class="st97" d="M-320.6,378.2c0.8,0,1.7,0,2.5,0c0.2,0.7,0,1.1-0.8,1C-319.6,379.1-320.6,379.5-320.6,378.2z"/>
	<path class="st21" d="M-326.1,362.3c1.3,0.1,1,1.1,1,1.9c-0.8,0.2-1-0.3-1-1C-326.3,362.9-326.4,362.6-326.1,362.3z"/>
	<path class="st98" d="M-326.1,362.3c0,0.3,0,0.6,0.1,0.9c-0.7,0.1-1.5,0.2-1.5-0.9C-327,362.3-326.6,362.3-326.1,362.3z"/>
	<path class="st62" d="M-539.1,396.1c0.3,1.5-0.2,2.3-1.9,2.1C-541.3,396.7-540.9,395.8-539.1,396.1z"/>
	<path class="st16" d="M-527.6,378.2c-0.3,0.1-0.6,0.1-0.9,0.2c0.1-0.9-0.7-2.1,0.8-2.7c0.1,0.1,0.2,0.2,0.3,0.2
		C-526.9,376.7-526.9,377.5-527.6,378.2z"/>
	<path class="st71" d="M-549.1,413.6c-0.3,0-0.6,0.1-0.9,0.1c0.2-0.7-0.6-1.9,0.9-2l0.1-0.1l0.1,0.1
		C-548.6,412.4-548.4,413.1-549.1,413.6z"/>
	<path class="st57" d="M-532.1,384.6c-0.1,0.8,0.5,1.9-1,2C-532.8,386-533.7,384.7-532.1,384.6z"/>
	<path class="st59" d="M-525.6,374.7c0,0.3,0,0.6,0,0.9c-0.6,0.6-1.2,0.6-1.9,0.1c0,0-0.2-0.1-0.2-0.1
		C-527.4,374.4-526.4,374.8-525.6,374.7z"/>
	<path class="st99" d="M-544.6,407.1c-0.3,0-0.7,0-1,0c0-0.8,0.1-1.6,1.1-2C-544.6,405.8-544.6,406.5-544.6,407.1z"/>
	<path class="st100" d="M-546.6,408.2c0,0.3,0,0.7,0,1c-0.5,0-0.9,0.1-1.4,0.1C-548.2,408.1-547.3,408.2-546.6,408.2z"/>
	<path class="st88" d="M-325.1,416.4c-0.1,0.7,0.4,2.2-0.2,3.5c-1.4,2.7-3.9,3.3-6.5,3.3c-4.4,0-8.8-5.1-7.6-8.6
		c1.4-4.4,4.7-6.3,9.7-5.3C-326.5,410-324.5,410.6-325.1,416.4z"/>
	<path class="st88" d="M-315,434.9c-0.1-1.1-0.1-1.7,1.2-1.8c1.5,0,1.2,0.8,1.3,1.7c0.1,1.4-0.9,1.8-1.8,1.7
		C-315.8,436.6-314.6,435.3-315,434.9z"/>
	<path class="st0" d="M-549.1,413.6c0.1-0.7,0.1-1.3,0.2-2c0.3,0,0.6,0,0.9,0c-0.1,0.8-0.1,1.6-0.2,2.4
		C-548.6,414.2-548.9,414-549.1,413.6z"/>
	<path class="st51" d="M-533,445.7c0,0.6-0.1,1.3-0.1,1.9c-0.5,0-1,0-1.5,0C-534.6,446.6-534.7,445.5-533,445.7z"/>
	<path class="st61" d="M-527.5,375.7c0.6,0,1.2-0.1,1.9-0.1c0.1,1.4,0.2,2.9-2,2.6C-527.5,377.4-527.5,376.6-527.5,375.7z"/>
	<path class="st0" d="M-541,400.8c-0.1,0.3-0.1,0.6-0.2,1c-0.9-0.1-0.9-0.7-0.6-1.4C-541.5,400.3-541.2,400.4-541,400.8z"/>
	<path class="st88" d="M-533.1,389c-0.5,0.1-0.9,0.1-1.4,0.2c0.1-0.3,0.1-0.6,0.2-0.9C-533.8,388.2-533.2,388.1-533.1,389z"/>
</g>
</svg>
